<?xml version="1.0" encoding="UTF-8"?>
<svg version="1.1" xmlns="http://www.w3.org/2000/svg" width="91" height="88">
<path d="M0 0 C0.78419815 -0.00540298 1.5683963 -0.01080597 2.37635803 -0.01637268 C4.96548339 -0.02886793 7.55349847 -0.01236438 10.14257812 0.00561523 C11.94331928 0.00546026 13.74406077 0.00397161 15.5447998 0.00120544 C19.3176143 -0.0001789 23.0900488 0.01238534 26.86279297 0.03515625 C31.6984854 0.06354106 36.53354643 0.06080407 41.36928558 0.04806614 C45.08735546 0.04111065 48.80527944 0.04889675 52.52333069 0.06132317 C54.3063145 0.06583893 56.08931396 0.06617337 57.87229919 0.06225777 C60.36441139 0.0593468 62.85565395 0.07584641 65.34765625 0.09765625 C66.45277306 0.09090378 66.45277306 0.09090378 67.58021545 0.08401489 C70.64435149 0.12856314 72.86730541 0.3406242 75.60046387 1.77696228 C78.9703629 5.47109873 78.30489864 9.85912579 78.3190918 14.65356445 C78.32245041 15.36627502 78.32580902 16.0789856 78.32926941 16.81329346 C78.33875422 19.16517895 78.34072129 21.51699306 78.34179688 23.86889648 C78.34501123 25.50790435 78.34837544 27.14691193 78.35188293 28.78591919 C78.35786806 32.22064885 78.35972347 35.65535338 78.35913086 39.09008789 C78.35902929 43.48377985 78.37267934 47.87731003 78.38990307 52.27096367 C78.40104069 55.65622696 78.40304952 59.04145137 78.40252113 62.42673111 C78.40369867 64.04619021 78.40810774 65.6656504 78.4158535 67.2850914 C78.42568883 69.55386319 78.4227615 71.82228664 78.41674805 74.09106445 C78.41817307 75.38027802 78.41959808 76.66949158 78.42106628 77.99777222 C78.1722453 81.52414124 77.55956793 84.25612891 76.17382812 87.50170898 C73.09718492 89.04003059 69.86016928 88.66665559 66.48291016 88.67871094 C65.68925049 88.68528214 64.89559082 88.69185333 64.07788086 88.69862366 C61.44579988 88.71836958 58.81377594 88.73002121 56.18164062 88.73999023 C55.28379726 88.74406576 54.3859539 88.74814129 53.46090317 88.75234032 C48.71010314 88.77320515 43.95933205 88.78750588 39.20849609 88.796875 C34.29650896 88.80794902 29.38497365 88.84235901 24.47314644 88.8820467 C20.70021713 88.90816298 16.92739637 88.91656231 13.15438461 88.92015648 C11.34345315 88.92503425 9.53252691 88.93668199 7.7216835 88.95519447 C5.18860048 88.97948367 2.65669841 88.97864016 0.12353516 88.97167969 C-0.62570221 88.98448975 -1.37493958 88.9972998 -2.1468811 89.01049805 C-5.40169785 88.97786469 -7.51154327 88.69907408 -10.29067993 86.95573425 C-12.39166289 83.5979405 -12.38650961 80.60867863 -12.34375 76.76733398 C-12.35075928 75.9928894 -12.35776855 75.21844482 -12.36499023 74.42053223 C-12.38257686 71.86389167 -12.37094576 69.30836054 -12.35742188 66.75170898 C-12.36011661 64.97338651 -12.36399888 63.19506548 -12.36901855 61.41674805 C-12.37491448 57.69101931 -12.36634774 53.96567434 -12.34765625 50.23999023 C-12.32486646 45.46471612 -12.33798906 40.69034122 -12.36194611 35.9151001 C-12.37640162 32.2433393 -12.37179927 28.57179164 -12.36143494 24.90002441 C-12.35876696 23.13936252 -12.36203992 21.37868127 -12.37135315 19.61804199 C-12.38151495 17.15686811 -12.3660244 14.69714948 -12.34375 12.23608398 C-12.35184692 11.50869019 -12.35994385 10.78129639 -12.36828613 10.03186035 C-12.3146567 6.83267318 -11.99933048 4.77684413 -10.28295898 2.04966736 C-6.90038861 -0.08160324 -3.87497354 -0.05084954 0 0 Z M24.17382812 16.50170898 C24.17382812 22.77170898 24.17382812 29.04170898 24.17382812 35.50170898 C21.20382813 33.19170898 18.23382812 30.88170898 15.17382812 28.50170898 C13.52382813 30.15170898 11.87382812 31.80170898 10.17382812 33.50170898 C13.66742278 37.09805642 17.28480944 40.33622866 21.17382812 43.50170898 C19.6958555 47.17227836 17.69767336 48.91256681 14.54882812 51.25170898 C13.7315625 51.86530273 12.91429687 52.47889648 12.07226562 53.11108398 C11.13253906 53.79944336 11.13253906 53.79944336 10.17382812 54.50170898 C11.54366315 57.66286674 12.16289192 58.49441818 15.17382812 60.50170898 C17.81382813 58.52170898 20.45382813 56.54170898 23.17382812 54.50170898 C23.50382812 60.44170898 23.83382812 66.38170898 24.17382812 72.50170898 C27.14382812 72.50170898 30.11382812 72.50170898 33.17382812 72.50170898 C33.50382812 66.56170898 33.83382812 60.62170898 34.17382812 54.50170898 C35.78257813 55.82170898 37.39132813 57.14170898 39.04882812 58.50170898 C40.0465625 59.31381836 41.04429688 60.12592773 42.07226562 60.96264648 C44.0749216 62.5945794 46.05321213 64.2461738 48.02539062 65.91577148 C48.899375 66.64538086 49.77335937 67.37499023 50.67382812 68.12670898 C51.46789063 68.79959961 52.26195312 69.47249023 53.08007812 70.16577148 C53.77101562 70.60663086 54.46195313 71.04749023 55.17382812 71.50170898 C56.16382813 71.17170898 57.15382812 70.84170898 58.17382812 70.50170898 C59.39252741 67.99723383 59.39252741 67.99723383 60.17382812 65.50170898 C58.05070835 63.66615875 55.92576539 61.83282896 53.79882812 60.00170898 C53.16702637 59.45724121 52.53522461 58.91277344 51.88427734 58.35180664 C47.31472821 54.43224147 42.65814829 50.6746475 37.86914062 47.02514648 C37.3096875 46.52241211 36.75023438 46.01967773 36.17382812 45.50170898 C36.17382812 44.84170898 36.17382812 44.18170898 36.17382812 43.50170898 C37.68169973 42.126796 39.25922573 40.82806437 40.86132812 39.56420898 C41.85132812 38.77272461 42.84132812 37.98124023 43.86132812 37.16577148 C44.395 36.73941406 44.92867187 36.31305664 45.47851562 35.8737793 C48.48038927 33.44426751 51.41899307 30.94021414 54.36132812 28.43920898 C54.93778076 27.95009033 55.5142334 27.46097168 56.1081543 26.95703125 C57.46407312 25.8060745 58.81905791 24.65401752 60.17382812 23.50170898 C59.45819547 21.48548568 59.45819547 21.48548568 58.17382812 19.50170898 C56.30415473 18.62555698 56.30415473 18.62555698 54.17382812 18.50170898 C51.72203593 20.29949084 49.57891997 22.0727683 47.36132812 24.12670898 C46.16990555 25.20509583 44.97589945 26.28063537 43.77929688 27.35327148 C43.25489014 27.83618652 42.7304834 28.31910156 42.19018555 28.81665039 C39.31927556 31.21585378 36.21835523 33.32704677 33.17382812 35.50170898 C33.17382812 29.23170898 33.17382812 22.96170898 33.17382812 16.50170898 C30.20382813 16.50170898 27.23382813 16.50170898 24.17382812 16.50170898 Z " fill="#3050CE" transform="translate(11.826171875,-0.501708984375)"/>
</svg>
