<svg width="640" height="148" viewBox="0 0 640 148" fill="none" xmlns="http://www.w3.org/2000/svg">
<g clip-path="url(#clip0_1029_12935)">
<path fill-rule="evenodd" clip-rule="evenodd" d="M10.1195 0.626722C6.72027 1.83155 3.32932 4.8853 1.75251 8.1604C0.134312 11.5232 0.039561 15.1455 0.0202419 74.25L0 136.782L2.0699 140.604C3.20788 142.706 5.30814 145.23 6.73683 146.213C9.30442 147.98 10.1287 148 78.9533 148H148.573L151.449 146.064C157.557 141.953 157.312 144.957 157.312 74.072C157.312 1.47045 157.763 5.87747 149.941 1.97478L145.983 0L78.7417 0.0685735C41.7586 0.105899 10.8785 0.357631 10.1195 0.626722ZM204.23 73.783V123.261H212.05H219.869V108.07C219.869 94.1462 220.004 92.8798 221.489 92.8798C222.38 92.8798 230.345 99.7155 239.188 108.07L255.268 123.261H265.681H276.095L255.737 104.381L235.379 85.5015L254.533 68.251C265.068 58.7634 273.825 50.6585 273.993 50.2393C274.162 49.8209 269.868 49.478 264.451 49.478H254.603L238.19 64.3058C229.163 72.461 221.348 78.8827 220.823 78.5771C220.198 78.2126 219.869 68.7666 219.869 51.1629V24.305H212.05H204.23V73.783ZM80.0361 42.5598V58.2113L99.2999 43.0111C109.895 34.652 118.985 27.7068 119.501 27.5775C120.432 27.3448 128.794 36.2917 128.794 37.52C128.794 37.8724 118.739 46.0788 106.451 55.7548C94.162 65.4316 83.9165 73.6267 83.6819 73.967C83.4473 74.3064 92.7775 82.0528 104.415 91.181C116.052 100.308 126.367 108.504 127.336 109.394C129.07 110.984 129.039 111.081 125.497 115.131C123.515 117.397 121.435 119.828 120.873 120.534C120.027 121.598 116.451 119.115 99.9439 106.003L80.0361 90.1889V105.857V121.525H71.2965H62.5569V105.857V90.1889L54.8551 96.3085C50.6187 99.6739 46.9343 102.428 46.6665 102.428C46.3988 102.428 44.0631 100.123 41.4752 97.3041L36.7715 92.181L47.6343 83.6326C53.6095 78.9313 58.5027 74.6944 58.5091 74.217C58.5156 73.7396 53.8404 69.6789 48.1192 65.1938C42.3989 60.7078 37.731 56.6063 37.7476 56.0794C37.7632 55.5517 39.7724 52.9988 42.2112 50.4051L46.6454 45.6899L54.3712 51.8486L62.097 58.0065L62.3481 42.4582L62.5983 26.9091H71.3177H80.0361V42.5598ZM520.925 49.0275C502.945 53.8026 493.058 67.3639 493.11 87.1802C493.174 112.313 511.822 127.633 539.013 124.892C546.869 124.1 552.314 121.926 557.526 117.5C561.836 113.839 566.692 107.953 566.692 106.391C566.692 105.848 563.908 104.11 560.505 102.525L554.317 99.647L552.915 101.652C547.467 109.447 542.687 111.933 533.114 111.949C522.288 111.967 514.991 107.589 511.063 98.7199C510.289 96.9708 509.655 94.3554 509.655 92.9075V90.2757H539.554H569.452V85.11C569.452 69.0643 560.396 55.2244 546.68 50.3105C539.825 47.8539 527.63 47.2472 520.925 49.0275ZM284.266 86.3695V123.261H292.506H300.747L301.016 97.871C301.283 72.6493 301.3 72.4618 303.494 69.5583C306.793 65.1946 311.81 63.4082 320.834 63.3857L328.424 63.3666V56.3164V49.2653L320.374 49.6473C311.247 50.0804 307.023 51.6828 304.655 55.6098C303.813 57.0056 302.4 58.1497 301.515 58.1531C300.196 58.1575 299.905 57.3754 299.905 53.8182V49.478H292.086H284.266V86.3695ZM337.985 50.7097C337.693 51.4259 337.619 63.2581 337.818 77.0034C338.157 100.269 338.323 102.328 340.21 106.837C343.073 113.676 347.664 118.348 354.757 121.643C359.907 124.034 361.789 124.442 367.827 124.475C377.846 124.53 383.082 122.9 388.278 118.11C390.642 115.93 392.76 113.588 392.984 112.905C393.235 112.142 393.99 111.881 394.946 112.227C396.168 112.669 396.501 113.911 396.501 118.026V123.261H403.86H411.22V86.3695V49.478H403.4H395.581V71.0209C395.581 96.1036 394.943 99.4265 388.951 105.559C380.406 114.307 363.498 113.875 357.091 104.746L354.643 101.258L354.183 75.585L353.723 49.912L346.118 49.6594C340.034 49.458 338.408 49.6672 337.985 50.7097ZM424.099 55.9883V62.4985H446.178C466.62 62.4985 468.252 62.6114 468.187 64.0176C468.148 64.8535 457.822 74.3255 445.239 85.0675L422.361 104.598L422.311 113.93L422.259 123.261H454.918H487.576V117.185V111.108H463.657C441.465 111.108 439.743 110.999 439.806 109.589C439.842 108.753 450.16 99.2998 462.781 88.5396L485.691 69.0088L485.714 59.2434L485.736 49.478H454.918H424.099V55.9883ZM579.572 86.3348V123.261H587.351H595.13L595.4 98.739C595.701 71.4584 595.754 71.1997 601.963 66.4837C605.293 63.9551 606.02 63.7832 614.613 63.502L623.729 63.2042V56.3407V49.478L617.52 49.4832C608.794 49.4893 604.548 50.8148 600.537 54.7826C598.661 56.6393 596.717 58.1584 596.218 58.1584C595.72 58.1584 595.185 56.3025 595.031 54.0352L594.751 49.912L587.161 49.6603L579.572 49.4077V86.3348ZM542.554 63.2702C544.446 64.1851 546.905 65.8561 548.019 66.9828C550.365 69.356 552.893 74.6693 552.893 77.2273C552.893 78.9504 552.393 78.9912 531.274 78.9912C514.587 78.9912 509.657 78.7438 509.664 77.9062C509.682 75.7847 514.049 68.1078 516.401 66.0644C522.371 60.8779 534.855 59.5446 542.554 63.2702ZM623.001 99.5367C619.767 100.177 614.847 105.332 614.157 108.803C612.501 117.134 617.922 123.261 626.949 123.261C636.447 123.261 641.89 116.471 639.396 107.733C637.719 101.858 630.219 98.1079 623.001 99.5367ZM633.511 103.098C636.239 105.183 637.529 107.862 637.529 111.444C637.529 117.99 633.642 121.525 626.443 121.525C623.328 121.525 622.05 120.982 619.498 118.574C616.942 116.162 616.37 114.961 616.37 112.006C616.37 105.083 619.912 101.598 626.949 101.598C629.937 101.598 632.237 102.124 633.511 103.098ZM622.81 111.543C622.81 115.304 623.198 118.053 623.729 118.053C624.235 118.053 624.649 116.855 624.649 115.391C624.649 112.999 624.906 112.757 627.179 113.004C629.166 113.22 629.772 113.791 630 115.666C630.16 116.978 630.678 118.053 631.15 118.053C632.447 118.053 632.18 113.049 630.859 112.591C629.939 112.273 629.939 111.964 630.859 111.043C632.473 109.43 632.291 106.188 630.554 105.559C629.753 105.269 627.683 105.032 625.954 105.032H622.81V111.543ZM629.709 108.938C629.709 110.187 628.999 110.752 627.179 110.949C624.986 111.187 624.649 110.919 624.649 108.938C624.649 106.958 624.986 106.689 627.179 106.928C628.999 107.125 629.709 107.69 629.709 108.938Z" fill="#FEFDFB"/>
</g>
<defs>
<clipPath id="clip0_1029_12935">
<rect width="640" height="148" rx="4" fill="white"/>
</clipPath>
</defs>
</svg>
